<svg width="24" height="24" viewBox="0 0 24 24" fill="none" xmlns="http://www.w3.org/2000/svg">
<path d="M19.3089 5L13.0173 9.65534L14.1873 6.9118L19.3089 5Z" fill="#E17726" stroke="#E17726" stroke-width="0.25" stroke-linecap="round" stroke-linejoin="round"/>
<path d="M4.79712 5L11.0327 9.69879L9.91878 6.91179L4.79712 5Z" fill="#E27625" stroke="#E27625" stroke-width="0.25" stroke-linecap="round" stroke-linejoin="round"/>
<path d="M17.0434 15.793L15.3694 18.3503L18.9539 19.3373L19.9808 15.8489L17.0434 15.793Z" fill="#E27625" stroke="#E27625" stroke-width="0.25" stroke-linecap="round" stroke-linejoin="round"/>
<path d="M4.13098 15.8489L5.15157 19.3373L8.72989 18.3503L7.06208 15.793L4.13098 15.8489Z" fill="#E27625" stroke="#E27625" stroke-width="0.25" stroke-linecap="round" stroke-linejoin="round"/>
<path d="M8.53597 11.4727L7.54028 12.9748L11.0875 13.1362L10.9692 9.31885L8.53597 11.4727Z" fill="#E27625" stroke="#E27625" stroke-width="0.25" stroke-linecap="round" stroke-linejoin="round"/>
<path d="M15.5688 11.4747L13.0982 9.27734L13.0173 13.1382L16.5645 12.9768L15.5688 11.4747Z" fill="#E27625" stroke="#E27625" stroke-width="0.25" stroke-linecap="round" stroke-linejoin="round"/>
<path d="M8.73035 18.3521L10.8773 17.3155L9.02907 15.8755L8.73035 18.3521Z" fill="#E27625" stroke="#E27625" stroke-width="0.25" stroke-linecap="round" stroke-linejoin="round"/>
<path d="M13.2288 17.3155L15.3695 18.3521L15.077 15.8755L13.2288 17.3155Z" fill="#E27625" stroke="#E27625" stroke-width="0.25" stroke-linecap="round" stroke-linejoin="round"/>
<path d="M15.3695 18.353L13.2288 17.3164L13.403 18.7068L13.3843 19.2965L15.3695 18.353Z" fill="#D5BFB2" stroke="#D5BFB2" stroke-width="0.25" stroke-linecap="round" stroke-linejoin="round"/>
<path d="M8.73035 18.353L10.7218 19.2965L10.7093 18.7068L10.8773 17.3164L8.73035 18.353Z" fill="#D5BFB2" stroke="#D5BFB2" stroke-width="0.25" stroke-linecap="round" stroke-linejoin="round"/>
<path d="M10.7591 14.9571L8.97925 14.4357L10.2363 13.8584L10.7591 14.9571Z" fill="#233447" stroke="#233447" stroke-width="0.25" stroke-linecap="round" stroke-linejoin="round"/>
<path d="M13.3467 14.9571L13.8694 13.8584L15.1327 14.4357L13.3467 14.9571Z" fill="#233447" stroke="#233447" stroke-width="0.25" stroke-linecap="round" stroke-linejoin="round"/>
<path d="M8.72906 18.3503L9.04024 15.793L7.06128 15.8489L8.72906 18.3503Z" fill="#CC6228" stroke="#CC6228" stroke-width="0.25" stroke-linecap="round" stroke-linejoin="round"/>
<path d="M15.0645 15.793L15.3694 18.3503L17.0434 15.8489L15.0645 15.793Z" fill="#CC6228" stroke="#CC6228" stroke-width="0.25" stroke-linecap="round" stroke-linejoin="round"/>
<path d="M16.5645 12.9751L13.0173 13.1365L13.3471 14.9552L13.8699 13.8565L15.1332 14.4338L16.5645 12.9751Z" fill="#CC6228" stroke="#CC6228" stroke-width="0.25" stroke-linecap="round" stroke-linejoin="round"/>
<path d="M8.97782 14.4338L10.2349 13.8565L10.7577 14.9552L11.0875 13.1365L7.54028 12.9751L8.97782 14.4338Z" fill="#CC6228" stroke="#CC6228" stroke-width="0.25" stroke-linecap="round" stroke-linejoin="round"/>
<path d="M7.54028 12.9751L9.02762 15.8738L8.9778 14.4338L7.54028 12.9751Z" fill="#E27525" stroke="#E27525" stroke-width="0.25" stroke-linecap="round" stroke-linejoin="round"/>
<path d="M15.1335 14.4338L15.0775 15.8738L16.5649 12.9751L15.1335 14.4338Z" fill="#E27525" stroke="#E27525" stroke-width="0.25" stroke-linecap="round" stroke-linejoin="round"/>
<path d="M11.0886 13.1362L10.7588 14.955L11.1757 17.1026L11.2691 14.2722L11.0886 13.1362Z" fill="#E27525" stroke="#E27525" stroke-width="0.25" stroke-linecap="round" stroke-linejoin="round"/>
<path d="M13.0175 13.1362L12.8433 14.266L12.9304 17.1026L13.3473 14.955L13.0175 13.1362Z" fill="#E27525" stroke="#E27525" stroke-width="0.25" stroke-linecap="round" stroke-linejoin="round"/>
<path d="M13.3464 14.956L12.9294 17.1036L13.2282 17.3147L15.0764 15.8746L15.1324 14.4346L13.3464 14.956Z" fill="#F5841F" stroke="#F5841F" stroke-width="0.25" stroke-linecap="round" stroke-linejoin="round"/>
<path d="M8.97925 14.4346L9.02907 15.8746L10.8773 17.3147L11.176 17.1036L10.7591 14.956L8.97925 14.4346Z" fill="#F5841F" stroke="#F5841F" stroke-width="0.25" stroke-linecap="round" stroke-linejoin="round"/>
<path d="M13.3853 19.2965L13.4039 18.7068L13.2421 18.5703H10.8649L10.7093 18.7068L10.7218 19.2965L8.73035 18.353L9.42733 18.9241L10.84 19.8986H13.2608L14.6796 18.9241L15.3704 18.353L13.3853 19.2965Z" fill="#C0AC9D" stroke="#C0AC9D" stroke-width="0.25" stroke-linecap="round" stroke-linejoin="round"/>
<path d="M13.2286 17.314L12.9299 17.103H11.175L10.8763 17.314L10.7083 18.7045L10.8638 18.5679H13.2411L13.4029 18.7045L13.2286 17.314Z" fill="#161616" stroke="#161616" stroke-width="0.25" stroke-linecap="round" stroke-linejoin="round"/>
<path d="M19.5763 9.95948L20.1053 7.38974L19.3087 5L13.2288 9.50018L15.5686 11.474L18.8731 12.4362L19.6012 11.5858L19.2839 11.3561L19.7879 10.8968L19.4021 10.5988L19.9062 10.214L19.5763 9.95948Z" fill="#763E1A" stroke="#763E1A" stroke-width="0.25" stroke-linecap="round" stroke-linejoin="round"/>
<path d="M4 7.38974L4.53519 9.95948L4.19292 10.214L4.70321 10.5988L4.31738 10.8968L4.82145 11.3561L4.50407 11.5858L5.23218 12.4362L8.53669 11.474L10.8765 9.50018L4.79656 5L4 7.38974Z" fill="#763E1A" stroke="#763E1A" stroke-width="0.25" stroke-linecap="round" stroke-linejoin="round"/>
<path d="M18.8736 12.4367L15.5691 11.4746L16.5649 12.9767L15.0775 15.8754L17.044 15.8506H19.9813L18.8736 12.4367Z" fill="#F5841F" stroke="#F5841F" stroke-width="0.25" stroke-linecap="round" stroke-linejoin="round"/>
<path d="M8.53694 11.4746L5.23247 12.4367L4.13098 15.8506H7.06208L9.02856 15.8754L7.54126 12.9767L8.53694 11.4746Z" fill="#F5841F" stroke="#F5841F" stroke-width="0.25" stroke-linecap="round" stroke-linejoin="round"/>
<path d="M13.0177 13.1384L13.2293 9.50095L14.1876 6.9126H9.91858L10.8769 9.50095L11.0885 13.1384L11.1694 14.2805L11.1756 17.1047H12.9306L12.9368 14.2805L13.0177 13.1384Z" fill="#F5841F" stroke="#F5841F" stroke-width="0.25" stroke-linecap="round" stroke-linejoin="round"/>
</svg>
